# xmcd
#
# Track frame offsets:
#	150
#	15923
#	32651
#	51109
#	62970
#	77783
#	94376
#	110990
#	125002
#	141866
#	158832
#	172318
#	188239
#	206620
#	223347
#	238673
#
# Disc length: 3362
#
# Revision: 3
# Processed by: cddbd v1.5.1PL0 Copyright (c) Steve Scherf et al.
# Submitted via: VisiTrax 2.9.9.209 - For more info visit www.synapsa.com
# Normalized: r2:DSETVAR1
#
DISCID=f40d2010
DTITLE=Various Artist - CDX 341 april 2004
DYEAR=2004
DGENRE=Country
TTITLE0=Trent Willmon - Beer man
TTITLE1=The Jenkins - Blame it on Mama
TTITLE2=Jessi Alexander - Honeysuckle sweet
TTITLE3=Craig Morgan - Look at us
TTITLE4=Don Williams - My heart to you
TTITLE5=Malibu Storm - Photograph
TTITLE6=Gretchen Wilson - Redneck woman
TTITLE7=Shannon Lawson - Smokin' grass
TTITLE8=Rushlow - Sweet summer rain
TTITLE9=Jimmy Wayne - You are
TTITLE10=Raymond Harris - Don't send the invitation
TTITLE11=Gary Cambell - Down into muddy water
TTITLE12=Royal Wade Kimes - Knockin' on heaven's door
TTITLE13=Well  Hungarians - Sorry 'bout the mess
TTITLE14=TC Taylor - Spilled perfume
TTITLE15=Glenn Kearney - Two old cars
EXTD=
EXTT0=
EXTT1=
EXTT2=
EXTT3=
EXTT4=
EXTT5=
EXTT6=
EXTT7=
EXTT8=
EXTT9=
EXTT10=
EXTT11=
EXTT12=
EXTT13=
EXTT14=
EXTT15=
PLAYORDER=
